<svg width="148" height="94" viewBox="0 0 148 94" fill="none" xmlns="http://www.w3.org/2000/svg">
<path d="M76.4888 85L105.255 21.7419L134.02 85H76.4888Z" stroke="white" stroke-width="18"/>
<path d="M43.5462 23.2686H21.1445V0H64.3478V54.602C64.3478 62.7989 62.9382 69.8941 60.1189 75.8875C57.2997 81.7928 53.4137 86.2878 48.4609 89.3727C43.5843 92.4576 38.1363 94 32.1168 94C26.3259 94 20.954 92.3254 16.0012 88.9761C11.1247 85.6268 7.23865 81.1317 4.34319 75.4909C1.44773 69.7618 0 63.5481 0 56.8495H20.8016C20.8016 60.9039 21.7922 64.2972 23.7733 67.0295C25.8306 69.7618 28.5736 71.128 32.0025 71.128C35.6599 71.128 38.4792 69.8059 40.4603 67.1617C42.5176 64.4294 43.5462 60.4632 43.5462 55.263V23.2686Z" fill="white"/>
</svg>
