<svg width="165" height="165" viewBox="0 0 165 165" fill="none" xmlns="http://www.w3.org/2000/svg">
<rect width="165" height="165" fill="black"/>
<path d="M85.4888 146L114.255 82.7419L143.02 146H85.4888Z" stroke="white" stroke-width="18"/>
<path d="M52.5462 84.2686H30.1445V61H73.3478V115.602C73.3478 123.799 71.9382 130.894 69.1189 136.887C66.2997 142.793 62.4137 147.288 57.4609 150.373C52.5843 153.458 47.1363 155 41.1168 155C35.3259 155 29.954 153.325 25.0012 149.976C20.1247 146.627 16.2387 142.132 13.3432 136.491C10.4477 130.762 9 124.548 9 117.85H29.8016C29.8016 121.904 30.7922 125.297 32.7733 128.03C34.8306 130.762 37.5736 132.128 41.0025 132.128C44.6599 132.128 47.4792 130.806 49.4603 128.162C51.5176 125.429 52.5462 121.463 52.5462 116.263V84.2686Z" fill="white"/>
</svg>
